{
  "accessors": [
    {
      "bufferView": 2,
      "componentType": 5126,
      "count": 245,
      "max": [
        0.12174899876117706,
        0.2377839982509613,
        0.01680999994277954
      ],
      "min": [
        -0.1232139989733696,
        0.09652210026979446,
        -0.44274500012397766
      ],
      "type": "VEC3"
    },
    {
      "bufferView": 2,
      "byteOffset": 2940,
      "componentType": 5126,
      "count": 245,
      "max": [
        0.9966151118278503,
        1.0,
        1.0
      ],
      "min": [
        -0.9966152310371399,
        0.0,
        -0.9243263602256775
      ],
      "type": "VEC3"
    },
    {
      "bufferView": 3,
      "componentType": 5126,
      "count": 245,
      "max": [
        1.0,
        0.9965639710426331,
        0.39599618315696716,
        1.0
      ],
      "min": [
        -0.7842532992362976,
        -0.4588431715965271,
        -0.3968799412250519,
        1.0
      ],
      "type": "VEC4"
    },
    {
      "bufferView": 1,
      "componentType": 5126,
      "count": 245,
      "max": [
        0.9962970018386841,
        0.9577370285987854
      ],
      "min": [
        0.19731800258159637,
        0.686922013759613
      ],
      "type": "VEC2"
    },
    {
      "bufferView": 0,
      "componentType": 5125,
      "count": 1128,
      "type": "SCALAR"
    },
    {
      "bufferView": 2,
      "byteOffset": 5880,
      "componentType": 5126,
      "count": 7672,
      "max": [
        0.18761199712753296,
        0.23436899483203888,
        0.9428679943084717
      ],
      "min": [
        -0.1877640038728714,
        -0.19347399473190308,
        -0.9428679943084717
      ],
      "type": "VEC3"
    },
    {
      "bufferView": 2,
      "byteOffset": 97944,
      "componentType": 5126,
      "count": 7672,
      "max": [
        1.0,
        1.0,
        1.0
      ],
      "min": [
        -1.0,
        -1.0,
        -1.0
      ],
      "type": "VEC3"
    },
    {
      "bufferView": 3,
      "byteOffset": 3920,
      "componentType": 5126,
      "count": 7672,
      "max": [
        1.0,
        0.9999945759773254,
        1.0,
        1.0
      ],
      "min": [
        -1.0,
        -1.0,
        -1.0,
        -1.0
      ],
      "type": "VEC4"
    },
    {
      "bufferView": 1,
      "byteOffset": 1960,
      "componentType": 5126,
      "count": 7672,
      "max": [
        0.9980080127716064,
        0.9814469814300537
      ],
      "min": [
        0.0019920500926673412,
        0.0019770199432969093
      ],
      "type": "VEC2"
    },
    {
      "bufferView": 0,
      "byteOffset": 4512,
      "componentType": 5125,
      "count": 33102,
      "type": "SCALAR"
    },
    {
      "bufferView": 2,
      "byteOffset": 190008,
      "componentType": 5126,
      "count": 9391,
      "max": [
        1.0,
        0.30375799536705017,
        0.7238450050354004
      ],
      "min": [
        -1.0,
        -0.30375799536705017,
        -0.9204480051994324
      ],
      "type": "VEC3"
    },
    {
      "bufferView": 2,
      "byteOffset": 302700,
      "componentType": 5126,
      "count": 9391,
      "max": [
        1.0,
        1.0,
        1.0
      ],
      "min": [
        -1.0,
        -1.0,
        -1.0
      ],
      "type": "VEC3"
    },
    {
      "bufferView": 3,
      "byteOffset": 126672,
      "componentType": 5126,
      "count": 9391,
      "max": [
        1.0,
        1.0,
        1.0,
        1.0
      ],
      "min": [
        -1.0,
        -1.0,
        -1.0,
        -1.0
      ],
      "type": "VEC4"
    },
    {
      "bufferView": 1,
      "byteOffset": 63336,
      "componentType": 5126,
      "count": 9391,
      "max": [
        0.9863340258598328,
        0.9980080127716064
      ],
      "min": [
        0.0019687700551003218,
        0.0019920000340789557
      ],
      "type": "VEC2"
    },
    {
      "bufferView": 0,
      "byteOffset": 136920,
      "componentType": 5125,
      "count": 41208,
      "type": "SCALAR"
    }
  ],
  "asset": {
    "extras": {
      "author": "luisvillarruel (https://sketchfab.com/luisvillarruel)",
      "license": "CC-BY-4.0 (http://creativecommons.org/licenses/by/4.0/)",
      "source": "https://sketchfab.com/3d-models/swordfish-2-15df20021f7f4133b75868ee00ea7207",
      "title": "Swordfish 2"
    },
    "generator": "Sketchfab-15.25.0",
    "version": "2.0"
  },
  "bufferViews": [
    {
      "buffer": 0,
      "byteLength": 301752,
      "name": "floatBufferViews",
      "target": 34963
    },
    {
      "buffer": 0,
      "byteLength": 138464,
      "byteOffset": 301752,
      "byteStride": 8,
      "name": "floatBufferViews",
      "target": 34962
    },
    {
      "buffer": 0,
      "byteLength": 415392,
      "byteOffset": 440216,
      "byteStride": 12,
      "name": "floatBufferViews",
      "target": 34962
    },
    {
      "buffer": 0,
      "byteLength": 276928,
      "byteOffset": 855608,
      "byteStride": 16,
      "name": "floatBufferViews",
      "target": 34962
    }
  ],
  "buffers": [
    {
      "byteLength": 1132536,
      "uri": "scene.bin"
    }
  ],
  "images": [
    {
      "uri": "textures/RedMetal1_baseColor.jpeg"
    },
    {
      "uri": "textures/RedMetal1_metallicRoughness.png"
    },
    {
      "uri": "textures/RedMetal1_normal.jpeg"
    },
    {
      "uri": "textures/BlackMetal1_baseColor.jpeg"
    },
    {
      "uri": "textures/BlackMetal1_metallicRoughness.png"
    },
    {
      "uri": "textures/BlackMetal1_normal.jpeg"
    },
    {
      "uri": "textures/glass_baseColor.jpeg"
    },
    {
      "uri": "textures/glass_metallicRoughness.png"
    },
    {
      "uri": "textures/glass_normal.jpeg"
    }
  ],
  "materials": [
    {
      "doubleSided": true,
      "name": "RedMetal1",
      "normalTexture": {
        "index": 2
      },
      "occlusionTexture": {
        "index": 1
      },
      "pbrMetallicRoughness": {
        "baseColorTexture": {
          "index": 0
        },
        "metallicRoughnessTexture": {
          "index": 1
        }
      }
    },
    {
      "doubleSided": true,
      "name": "BlackMetal1",
      "normalTexture": {
        "index": 5
      },
      "occlusionTexture": {
        "index": 4
      },
      "pbrMetallicRoughness": {
        "baseColorTexture": {
          "index": 3
        },
        "metallicRoughnessTexture": {
          "index": 4
        }
      }
    },
    {
      "doubleSided": true,
      "name": "glass",
      "normalTexture": {
        "index": 8
      },
      "pbrMetallicRoughness": {
        "baseColorTexture": {
          "index": 6
        },
        "metallicRoughnessTexture": {
          "index": 7
        }
      }
    }
  ],
  "meshes": [
    {
      "name": "defaultMaterial",
      "primitives": [
        {
          "attributes": {
            "NORMAL": 1,
            "POSITION": 0,
            "TANGENT": 2,
            "TEXCOORD_0": 3
          },
          "indices": 4,
          "material": 2,
          "mode": 4
        }
      ]
    },
    {
      "name": "defaultMaterial",
      "primitives": [
        {
          "attributes": {
            "NORMAL": 6,
            "POSITION": 5,
            "TANGENT": 7,
            "TEXCOORD_0": 8
          },
          "indices": 9,
          "material": 1,
          "mode": 4
        }
      ]
    },
    {
      "name": "defaultMaterial",
      "primitives": [
        {
          "attributes": {
            "NORMAL": 11,
            "POSITION": 10,
            "TANGENT": 12,
            "TEXCOORD_0": 13
          },
          "indices": 14,
          "material": 0,
          "mode": 4
        }
      ]
    }
  ],
  "nodes": [
    {
      "children": [
        1
      ],
      "matrix": [
        1.0,
        0.0,
        0.0,
        0.0,
        0.0,
        2.220446049250313e-16,
        -1.0,
        0.0,
        0.0,
        1.0,
        2.220446049250313e-16,
        0.0,
        0.0,
        0.0,
        0.0,
        1.0
      ],
      "name": "Sketchfab_model"
    },
    {
      "children": [
        2,
        4,
        6
      ],
      "matrix": [
        1.0,
        0.0,
        0.0,
        0.0,
        0.0,
        -4.371139006309477e-08,
        0.999999999999999,
        0.0,
        0.0,
        -0.999999999999999,
        -4.371139006309477e-08,
        0.0,
        0.0,
        0.0,
        0.0,
        1.0
      ],
      "name": "Collada visual scene group"
    },
    {
      "children": [
        3
      ],
      "name": "mesh_2"
    },
    {
      "mesh": 0,
      "name": "defaultMaterial"
    },
    {
      "children": [
        5
      ],
      "name": "mesh_1"
    },
    {
      "mesh": 1,
      "name": "defaultMaterial"
    },
    {
      "children": [
        7
      ],
      "name": "mesh_0"
    },
    {
      "mesh": 2,
      "name": "defaultMaterial"
    }
  ],
  "samplers": [
    {
      "magFilter": 9729,
      "minFilter": 9987,
      "wrapS": 10497,
      "wrapT": 10497
    }
  ],
  "scene": 0,
  "scenes": [
    {
      "name": "Sketchfab_Scene",
      "nodes": [
        0
      ]
    }
  ],
  "textures": [
    {
      "sampler": 0,
      "source": 0
    },
    {
      "sampler": 0,
      "source": 1
    },
    {
      "sampler": 0,
      "source": 2
    },
    {
      "sampler": 0,
      "source": 3
    },
    {
      "sampler": 0,
      "source": 4
    },
    {
      "sampler": 0,
      "source": 5
    },
    {
      "sampler": 0,
      "source": 6
    },
    {
      "sampler": 0,
      "source": 7
    },
    {
      "sampler": 0,
      "source": 8
    }
  ]
}
